<svg width="19" height="19" viewBox="0 0 19 19" fill="none" xmlns="http://www.w3.org/2000/svg">
<path d="M7.12565 17.4167H11.8757C15.834 17.4167 17.4173 15.8333 17.4173 11.875V7.125C17.4173 3.16667 15.834 1.58333 11.8757 1.58333H7.12565C3.16732 1.58333 1.58398 3.16667 1.58398 7.125V11.875C1.58398 15.8333 3.16732 17.4167 7.12565 17.4167Z" stroke="#9CA5B3" stroke-width="1.5" stroke-linecap="round" stroke-linejoin="round"/>
<path d="M7.12435 7.91667C7.9988 7.91667 8.70768 7.20778 8.70768 6.33333C8.70768 5.45888 7.9988 4.75 7.12435 4.75C6.2499 4.75 5.54102 5.45888 5.54102 6.33333C5.54102 7.20778 6.2499 7.91667 7.12435 7.91667Z" stroke="#9CA5B3" stroke-width="1.5" stroke-linecap="round" stroke-linejoin="round"/>
<path d="M2.11328 15.0021L6.0162 12.3817C6.64161 11.9621 7.54411 12.0096 8.1062 12.4925L8.36745 12.7221C8.98495 13.2525 9.98245 13.2525 10.5999 12.7221L13.8933 9.89583C14.5108 9.36542 15.5083 9.36542 16.1258 9.89583L17.4162 11.0042" stroke="#9CA5B3" stroke-width="1.5" stroke-linecap="round" stroke-linejoin="round"/>
</svg>
