<svg width="19" height="19" viewBox="0 0 19 19" fill="none" xmlns="http://www.w3.org/2000/svg">
<path d="M6.72982 15.0417H6.33398C3.16732 15.0417 1.58398 14.25 1.58398 10.2917V6.33333C1.58398 3.16667 3.16732 1.58333 6.33398 1.58333H12.6673C15.834 1.58333 17.4173 3.16667 17.4173 6.33333V10.2917C17.4173 13.4583 15.834 15.0417 12.6673 15.0417H12.2715C12.0261 15.0417 11.7886 15.1604 11.6382 15.3583L10.4507 16.9417C9.92815 17.6383 9.07315 17.6383 8.55065 16.9417L7.36315 15.3583C7.23648 15.1842 6.94357 15.0417 6.72982 15.0417Z" stroke="#9CA5B3" stroke-width="1.5" stroke-miterlimit="10" stroke-linecap="round" stroke-linejoin="round"/>
<path d="M5.54102 6.33333H13.4577" stroke="#9CA5B3" stroke-width="1.5" stroke-linecap="round" stroke-linejoin="round"/>
<path d="M5.54102 10.2917H10.291" stroke="#9CA5B3" stroke-width="1.5" stroke-linecap="round" stroke-linejoin="round"/>
</svg>
