<svg width="19" height="19" viewBox="0 0 19 19" fill="none" xmlns="http://www.w3.org/2000/svg">
<path d="M3.30155 12.1125L6.8878 15.6988C8.3603 17.1713 10.7511 17.1713 12.2316 15.6988L15.707 12.2234C17.1795 10.7509 17.1795 8.36004 15.707 6.87962L12.1128 3.30129C11.3607 2.54921 10.3236 2.14546 9.2628 2.20087L5.30447 2.39087C3.72113 2.46212 2.46238 3.72087 2.38322 5.29629L2.19322 9.25462C2.14572 10.3234 2.54947 11.3605 3.30155 12.1125Z" stroke="#9CA5B3" stroke-width="1.5" stroke-linecap="round" stroke-linejoin="round"/>
<path d="M7.52018 9.50004C8.61325 9.50004 9.49935 8.61394 9.49935 7.52087C9.49935 6.42781 8.61325 5.54171 7.52018 5.54171C6.42712 5.54171 5.54102 6.42781 5.54102 7.52087C5.54102 8.61394 6.42712 9.50004 7.52018 9.50004Z" stroke="#9CA5B3" stroke-width="1.5" stroke-linecap="round"/>
</svg>
